<svg width="40" height="40" viewBox="0 0 40 40" fill="none" xmlns="http://www.w3.org/2000/svg">
<path d="M33.377 33.5083H19.9389H6.4917V20.1246V6.62305H19.8961H33.377V20.0653V33.5083Z" fill="#FDFBFB"/>
<path d="M32.3618 25.611H23.5271L22.9659 24.8825V25.611H21.0514V24.4486C20.8091 24.5389 20.5345 24.5927 20.2276 24.5927H19.9154V25.611H17.0775L16.6428 25.0046L16.222 25.611H11.6054V21.1573H16.2399L16.6701 21.7547L17.0954 21.1573H33.377V6.62305H6.4917V17.5425L7.42409 15.3695H9.28003L9.7595 16.4849V15.3695H12.0272L12.326 16.2522L12.6247 15.3695H22.4781V15.784C22.847 15.4996 23.3261 15.3695 23.8493 15.3695H26.909L27.3885 16.4849V15.3695H29.2216L29.7556 16.1977V15.3695H31.7201V19.8232H29.7873L29.2851 19.0447V19.8232H26.5423L26.2843 19.1623H25.7047L25.4471 19.8232H23.7996C23.3643 19.8232 22.8718 19.7345 22.4781 19.439V19.8232H19.6943L19.133 19.0947V19.8232H8.91334L8.65531 19.1623H8.07609L7.81806 19.8232H6.4917V33.5083H33.377V25.3207C33.1032 25.5013 32.7554 25.611 32.3618 25.611Z" fill="#006FCF"/>
<path d="M32.3622 24.2581H30.7237V24.9687H32.3578C33.0456 24.9687 33.453 24.552 33.453 23.9411C33.453 23.3664 33.0953 23.0314 32.4664 23.0314H31.7151C31.5475 23.0314 31.4298 22.9272 31.4298 22.7689C31.4298 22.6106 31.5475 22.5109 31.7151 22.5109H33.0818L33.394 21.8003H31.724C31.0359 21.8003 30.624 22.2211 30.624 22.7962C30.624 23.3936 31.0135 23.7375 31.6154 23.7375H32.3622C32.5296 23.7375 32.652 23.8417 32.652 24C32.652 24.1584 32.5296 24.2581 32.3622 24.2581ZM29.4608 24.2581H27.8226V24.9687H29.4563C30.1445 24.9687 30.5519 24.552 30.5519 23.9411C30.5519 23.3664 30.1942 23.0314 29.565 23.0314H28.8137C28.6463 23.0314 28.5288 22.9272 28.5288 22.7689C28.5288 22.6106 28.6463 22.5109 28.8137 22.5109H30.1808L30.4929 21.8003H28.8226C28.1348 21.8003 27.7229 22.2211 27.7229 22.7962C27.7229 23.3936 28.112 23.7375 28.7143 23.7375H29.4608C29.6284 23.7375 29.7505 23.8417 29.7505 24C29.7505 24.1584 29.6284 24.2581 29.4608 24.2581ZM27.4649 22.5109V21.8003H24.885V24.9687H27.4649V24.2581H25.6908V23.7192H27.4242V23.0269H25.6908V22.5109H27.4649ZM23.3823 22.5109C23.6269 22.5109 23.7535 22.6602 23.7535 22.8369C23.7535 23.018 23.6269 23.158 23.3823 23.158H22.5089V22.5109H23.3823ZM22.5089 23.8462H22.8211L23.7673 24.9687H24.7583L23.7311 23.8145C24.2517 23.7013 24.5638 23.3163 24.5638 22.823C24.5638 22.2166 24.143 21.8003 23.4641 21.8003H21.7035V24.9687H22.5089V23.8462ZM20.5492 22.8731C20.5492 23.0676 20.4223 23.226 20.178 23.226H19.2818V22.5109H20.178C20.4223 22.5109 20.5492 22.6737 20.5492 22.8731ZM18.4764 21.8003V24.9687H19.2818V23.9366H20.2322C20.9294 23.9366 21.3591 23.4795 21.3591 22.8686C21.3591 22.2349 20.9383 21.8003 20.2595 21.8003H18.4764ZM17.3991 24.9687H18.4084L17.132 23.3708L18.3995 21.8003H17.417L16.6701 22.7733L15.9233 21.8003H14.9143L16.1814 23.3888L14.9188 24.9687H15.9009L16.6477 23.9863L17.3991 24.9687ZM14.8553 22.5109V21.8003H12.2754V24.9687H14.8553V24.2581H13.0812V23.7192H14.8147V23.0269H13.0812V22.5109H14.8553Z" fill="#006FCF"/>
<path d="M30.0727 19.1807H31.0502V16.0122H30.2493V17.9768L28.9864 16.0122H27.9681V19.1807H28.7691V17.1441L30.0727 19.1807ZM25.5513 17.8453L25.99 16.7591L26.4337 17.8453H25.5513ZM26.977 19.1807H27.8822L26.5289 16.0122H25.4833L24.1256 19.1807H25.0125L25.275 18.5335H26.7145L26.977 19.1807ZM23.7182 19.1807H23.7816L24.1118 18.47H23.8538C23.347 18.47 23.0483 18.1624 23.0483 17.619V17.5738C23.0483 17.0985 23.3153 16.7457 23.8403 16.7457H24.6913V16.0122H23.7768C22.7813 16.0122 22.2473 16.6732 22.2473 17.5738V17.619C22.2473 18.5921 22.8085 19.1807 23.7182 19.1807ZM21.0524 19.1807H21.8582V17.5965V16.0122H21.0524V17.5965V19.1807ZM19.5497 16.7228C19.794 16.7228 19.9209 16.8722 19.9209 17.0489C19.9209 17.2299 19.794 17.3703 19.5497 17.3703H18.6763V16.7228H19.5497ZM18.6763 18.0582H18.9885L19.9344 19.1807H20.9258L19.8982 18.0264C20.4187 17.9133 20.7309 17.5287 20.7309 17.0354C20.7309 16.4289 20.31 16.0122 19.6312 16.0122H17.8705V19.1807H18.6763V18.0582ZM17.4179 16.7228V16.0122H14.838V19.1807H17.4179V18.47H15.6438V17.9316H17.3772V17.2389H15.6438V16.7228H17.4179ZM11.9687 19.1807H12.6699L13.5075 16.836V19.1807H14.304V16.0122H13.0366L12.3305 18.0309L11.6199 16.0122H10.339V19.1807H11.1359V16.836L11.9687 19.1807ZM7.9223 17.8453L8.36145 16.7591L8.80505 17.8453H7.9223ZM9.34801 19.1807H10.2532L8.89987 16.0122H7.8543L6.49658 19.1807H7.38381L7.64637 18.5335H9.08551L9.34801 19.1807Z" fill="#006FCF"/>
</svg>
