<svg width="40" height="24" viewBox="0 0 40 24" fill="none" xmlns="http://www.w3.org/2000/svg">
<g clip-path="url(#clip0_213_2180)">
<path d="M38.4 0H1.6C0.716344 0 0 0.716344 0 1.6V22.4C0 23.2837 0.716344 24 1.6 24H38.4C39.2837 24 40 23.2837 40 22.4V1.6C40 0.716344 39.2837 0 38.4 0Z" fill="#FDFBFB"/>
<path d="M9.646 23.9998H38.4C39.284 23.9998 40 23.285 40 22.4018V13.479C40 13.479 29.28 20.747 9.646 23.9998Z" fill="#E6772F"/>
<path fill-rule="evenodd" clip-rule="evenodd" d="M7.31555 11.9286C7.01515 12.1854 6.63275 12.2978 6.02155 12.2978H5.76795V9.23384H6.02155C6.63275 9.23384 7.00035 9.33824 7.31555 9.60784C7.64035 9.88664 7.83555 10.3158 7.83555 10.7606C7.83555 11.207 7.64035 11.6522 7.31555 11.9286ZM6.21075 8.44864H4.82275V13.083H6.20275C6.93635 13.083 7.46675 12.9158 7.93075 12.547C8.48275 12.1098 8.80995 11.4502 8.80995 10.767C8.80995 9.39904 7.74195 8.44864 6.21075 8.44864ZM9.24555 8.44864H10.1868V13.083H9.24555V8.44864ZM12.4976 10.225C11.9296 10.0254 11.7636 9.89304 11.7636 9.64224C11.7636 9.35104 12.0604 9.13024 12.4684 9.13024C12.7512 9.13024 12.9844 9.23864 13.2324 9.50344L13.7236 8.88664C13.3271 8.54979 12.8226 8.36703 12.3024 8.37184C11.4452 8.37184 10.792 8.94224 10.792 9.69664C10.792 10.337 11.0956 10.6622 11.9816 10.9706C12.3524 11.0938 12.5404 11.1782 12.6356 11.235C12.8244 11.3518 12.9184 11.519 12.9184 11.7126C12.9184 12.0898 12.6064 12.3666 12.1844 12.3666C11.7352 12.3666 11.372 12.1514 11.1544 11.7474L10.5456 12.3114C10.9808 12.9218 11.5024 13.1946 12.2216 13.1946C13.2016 13.1946 13.8924 12.5666 13.8924 11.6722C13.8924 10.935 13.5724 10.6006 12.4976 10.225ZM14.1892 10.767C14.1892 12.1298 15.3072 13.1858 16.746 13.1858C17.152 13.1858 17.4996 13.109 17.928 12.9158V11.8506C17.5496 12.2146 17.2172 12.3586 16.7876 12.3586C15.8368 12.3586 15.1632 11.6998 15.1632 10.7606C15.1632 9.87264 15.8584 9.16984 16.746 9.16984C17.194 9.16984 17.5364 9.32184 17.928 9.69104V8.62704C17.5144 8.42704 17.1748 8.34424 16.7656 8.34424C15.3348 8.34424 14.1892 9.42064 14.1892 10.767ZM25.5796 11.5598L24.288 8.44864H23.2584L25.3112 13.1998H25.8176L27.9104 8.44864H26.8888L25.5796 11.5598ZM28.3388 13.083H31.0172V12.2978H29.284V11.0466H30.9512V10.2618H29.284V9.23384H31.0172V8.44864H28.3388V13.083ZM32.8616 10.5798H32.5876V9.17824H32.8772C33.4672 9.17824 33.7832 9.41504 33.7832 9.86624C33.7832 10.3302 33.4672 10.5798 32.8616 10.5798ZM34.7556 9.81584C34.7556 8.94824 34.1336 8.44864 33.0436 8.44864H31.6408V13.083H32.5876V11.2198H32.7104L34.0152 13.083H35.1768L33.6532 11.1298C34.3652 10.9906 34.7556 10.5246 34.7556 9.81584Z" fill="#1A1919"/>
<path fill-rule="evenodd" clip-rule="evenodd" d="M23.3916 10.7778C23.3916 12.1118 22.262 13.1934 20.8672 13.1934C19.4724 13.1934 18.3428 12.1118 18.3428 10.7778C18.3428 9.44342 19.4724 8.36182 20.8668 8.36182C22.262 8.36182 23.3916 9.44342 23.3916 10.7778Z" fill="#E6772F"/>
</g>
<defs>
<clipPath id="clip0_213_2180">
<rect width="40" height="24" fill="white"/>
</clipPath>
</defs>
</svg>
