<svg width="40" height="40" viewBox="0 0 40 40" fill="none" xmlns="http://www.w3.org/2000/svg">
<mask id="mask0_213_2157" style="mask-type:luminance" maskUnits="userSpaceOnUse" x="0" y="0" width="40" height="40">
<path d="M39.9604 0H0V39.9604H39.9604V0Z" fill="white"/>
</mask>
<g mask="url(#mask0_213_2157)">
<path d="M25.3824 10.2734H14.5776V29.6877H25.3824V10.2734Z" fill="#FF5F00"/>
<path d="M15.2638 19.9806C15.2638 16.036 17.1161 12.5373 19.963 10.2735C17.8707 8.62705 15.2295 7.63232 12.3483 7.63232C5.52244 7.63232 0 13.1548 0 19.9806C0 26.8064 5.52244 32.3289 12.3483 32.3289C15.2295 32.3289 17.8707 31.3341 19.963 29.6877C17.1161 27.4582 15.2638 23.9252 15.2638 19.9806Z" fill="#EB001B"/>
<path d="M39.9607 19.9806C39.9607 26.8064 34.4382 32.3289 27.6123 32.3289C24.7311 32.3289 22.0899 31.3341 19.9976 29.6877C22.8788 27.4239 24.6968 23.9252 24.6968 19.9806C24.6968 16.036 22.8446 12.5373 19.9976 10.2735C22.0899 8.62705 24.7311 7.63232 27.6123 7.63232C34.4382 7.63232 39.9607 13.189 39.9607 19.9806Z" fill="#F79E1B"/>
</g>
</svg>
