<svg width="98" height="26" viewBox="0 0 98 26" fill="none" xmlns="http://www.w3.org/2000/svg">
<path d="M36.5214 5.31738H31.1164C30.7466 5.31738 30.432 5.58526 30.3743 5.94926L28.1883 19.7663C28.1448 20.0389 28.3566 20.2847 28.634 20.2847H31.2144C31.5843 20.2847 31.8989 20.0168 31.9565 19.6521L32.5461 15.9254C32.603 15.5606 32.9184 15.2927 33.2875 15.2927H34.9985C38.5589 15.2927 40.6137 13.5751 41.1504 10.1715C41.3922 8.68242 41.1606 7.51241 40.4612 6.69302C39.693 5.79326 38.3305 5.31738 36.5214 5.31738ZM37.145 10.3638C36.8494 12.2972 35.3676 12.2972 33.9347 12.2972H33.1191L33.6913 8.68635C33.7253 8.46811 33.915 8.30738 34.1363 8.30738H34.5101C35.4861 8.30738 36.4069 8.30738 36.8826 8.86205C37.1664 9.19296 37.2533 9.6846 37.145 10.3638Z" fill="#253B80"/>
<path d="M52.6781 10.3017H50.0898C49.8693 10.3017 49.6788 10.4625 49.6449 10.6807L49.5303 11.4024L49.3493 11.1408C48.7889 10.3301 47.5394 10.0591 46.2923 10.0591C43.4321 10.0591 40.9892 12.2187 40.5135 15.2481C40.2661 16.7592 40.6178 18.2042 41.4777 19.2119C42.2664 20.1384 43.395 20.5245 44.7377 20.5245C47.0423 20.5245 48.3203 19.0472 48.3203 19.0472L48.2049 19.7642C48.1614 20.0384 48.3732 20.2842 48.649 20.2842H50.9805C51.3512 20.2842 51.6641 20.0163 51.7226 19.6515L53.1215 10.8202C53.1657 10.5484 52.9547 10.3017 52.6781 10.3017ZM49.0703 15.3237C48.8205 16.7978 47.6469 17.7874 46.15 17.7874C45.3984 17.7874 44.7978 17.5471 44.4121 17.0917C44.0296 16.6394 43.8842 15.9957 44.0059 15.2788C44.239 13.8173 45.4324 12.7954 46.9064 12.7954C47.6414 12.7954 48.2389 13.0388 48.6324 13.4982C49.0268 13.9622 49.1833 14.6099 49.0703 15.3237Z" fill="#253B80"/>
<path d="M66.4631 10.3013H63.8621C63.6139 10.3013 63.3808 10.4242 63.2401 10.6298L59.6528 15.8976L58.1323 10.8355C58.0366 10.5187 57.7434 10.3013 57.4115 10.3013H54.8556C54.545 10.3013 54.3292 10.6038 54.428 10.8953L57.2929 19.2768L54.5995 23.0673C54.3877 23.3659 54.6011 23.7764 54.967 23.7764H57.5648C57.8114 23.7764 58.0422 23.6566 58.182 23.4549L66.8329 11.0064C67.04 10.7086 66.8274 10.3013 66.4631 10.3013Z" fill="#253B80"/>
<path d="M75.0742 5.31738H69.6684C69.2993 5.31738 68.9848 5.58526 68.9271 5.94926L66.741 19.7663C66.6976 20.0389 66.9094 20.2847 67.1852 20.2847H69.9592C70.2169 20.2847 70.4374 20.0972 70.4777 19.8419L71.0981 15.9254C71.155 15.5606 71.4703 15.2927 71.8394 15.2927H73.5497C77.1109 15.2927 79.1649 13.5751 79.7023 10.1715C79.9449 8.68242 79.7118 7.51241 79.0124 6.69302C78.245 5.79326 76.8832 5.31738 75.0742 5.31738ZM75.6978 10.3638C75.403 12.2972 73.9211 12.2972 72.4875 12.2972H71.6726L72.2456 8.68635C72.2796 8.46811 72.4677 8.30738 72.6898 8.30738H73.0636C74.0389 8.30738 74.9604 8.30738 75.4362 8.86205C75.7199 9.19296 75.806 9.6846 75.6978 10.3638Z" fill="#179BD7"/>
<path d="M91.2299 10.3017H88.6432C88.4211 10.3017 88.2322 10.4625 88.199 10.6807L88.0844 11.4024L87.9026 11.1408C87.3423 10.3301 86.0936 10.0591 84.8465 10.0591C81.9863 10.0591 79.5442 12.2187 79.0684 15.2481C78.8218 16.7592 79.172 18.2042 80.0318 19.2119C80.8221 20.1384 81.9491 20.5245 83.2919 20.5245C85.5965 20.5245 86.8744 19.0472 86.8744 19.0472L86.7591 19.7642C86.7156 20.0384 86.9274 20.2842 87.2048 20.2842H89.5355C89.9045 20.2842 90.2191 20.0163 90.2768 19.6515L91.6764 10.8202C91.7191 10.5484 91.5073 10.3017 91.2299 10.3017ZM87.6221 15.3237C87.3739 16.7978 86.1987 17.7874 84.7018 17.7874C83.9518 17.7874 83.3496 17.5471 82.9639 17.0917C82.5814 16.6394 82.4376 15.9957 82.5577 15.2788C82.7924 13.8173 83.9842 12.7954 85.4582 12.7954C86.1932 12.7954 86.7907 13.0388 87.1842 13.4982C87.5802 13.9622 87.7367 14.6099 87.6221 15.3237Z" fill="#179BD7"/>
<path d="M94.2817 5.69616L92.0633 19.7661C92.0198 20.0387 92.2316 20.2845 92.5075 20.2845H94.7377C95.1084 20.2845 95.423 20.0166 95.4799 19.6519L97.6675 5.83562C97.7109 5.56301 97.4991 5.31641 97.2233 5.31641H94.7259C94.5054 5.31719 94.3157 5.47792 94.2817 5.69616Z" fill="#179BD7"/>
<path d="M5.74233 22.9697L6.15567 20.3523L5.23494 20.3311H0.838379L3.89377 1.01779C3.90325 0.959489 3.93407 0.905125 3.97912 0.866519C4.02417 0.827913 4.08186 0.806641 4.14193 0.806641H11.5551C14.0162 0.806641 15.7146 1.31719 16.6014 2.32488C17.0171 2.79761 17.2818 3.29161 17.4099 3.83525C17.5442 4.40567 17.5466 5.08718 17.4154 5.9184L17.4059 5.97906V6.51167L17.8216 6.74646C18.1717 6.93161 18.4499 7.14355 18.6633 7.38621C19.019 7.7904 19.2489 8.30409 19.3461 8.91312C19.4465 9.53949 19.4133 10.2848 19.2489 11.1286C19.0593 12.0993 18.7526 12.9447 18.3385 13.6365C17.9576 14.2738 17.4723 14.8025 16.8961 15.2122C16.3461 15.6014 15.6925 15.8969 14.9535 16.086C14.2375 16.2719 13.4211 16.3657 12.5257 16.3657H11.9487C11.5362 16.3657 11.1355 16.5138 10.8209 16.7793C10.5056 17.0503 10.297 17.4206 10.2329 17.8256L10.1895 18.0612L9.45921 22.6742L9.42602 22.8436C9.41733 22.8972 9.40231 22.924 9.38018 22.9421C9.36042 22.9586 9.33197 22.9697 9.30431 22.9697H5.74233Z" fill="#253B80"/>
<path d="M18.2152 6.04053C18.1931 6.18156 18.1678 6.32574 18.1393 6.47386C17.1617 11.4777 13.8171 13.2063 9.54536 13.2063H7.37039C6.84799 13.2063 6.40778 13.5845 6.32638 14.0982L5.21281 21.1386L4.89747 23.1343C4.84452 23.4716 5.10533 23.7757 5.44675 23.7757H9.30431C9.76112 23.7757 10.1492 23.4448 10.2211 22.9957L10.259 22.8003L10.9853 18.2054L11.032 17.9533C11.1031 17.5026 11.4919 17.1717 11.9487 17.1717H12.5257C16.2631 17.1717 19.1889 15.659 20.044 11.2815C20.4012 9.45283 20.2163 7.92592 19.2711 6.85204C18.985 6.52822 18.6301 6.25956 18.2152 6.04053Z" fill="#179BD7"/>
<path d="M17.1928 5.634C17.0434 5.59066 16.8893 5.55127 16.7313 5.51582C16.5724 5.48115 16.4096 5.45042 16.242 5.42363C15.6556 5.32909 15.0131 5.28418 14.3247 5.28418H8.51427C8.37122 5.28418 8.23529 5.31648 8.11358 5.37479C7.84566 5.50321 7.6465 5.75612 7.59829 6.06576L6.36222 13.8705L6.32666 14.0982C6.40806 13.5845 6.84827 13.2063 7.37068 13.2063H9.54564C13.8173 13.2063 17.162 11.4769 18.1396 6.47388C18.1689 6.32576 18.1934 6.18157 18.2155 6.04054C17.9681 5.90976 17.7002 5.79788 17.4117 5.70254C17.3406 5.67891 17.2671 5.65606 17.1928 5.634Z" fill="#222D65"/>
<path d="M7.59815 6.06588C7.64636 5.75624 7.84552 5.50333 8.11344 5.3757C8.23594 5.31739 8.37109 5.28509 8.51413 5.28509H14.3246C15.013 5.28509 15.6555 5.33 16.2419 5.42455C16.4095 5.45133 16.5723 5.48206 16.7311 5.51673C16.8892 5.55218 17.0433 5.59158 17.1927 5.63491C17.267 5.65697 17.3405 5.67982 17.4124 5.70267C17.7008 5.798 17.9688 5.91067 18.2161 6.04067C18.507 4.19151 18.2138 2.93248 17.2108 1.79242C16.1052 0.537333 14.1096 0 11.5561 0H4.14286C3.62125 0 3.1763 0.378182 3.09568 0.892667L0.00789439 20.4045C-0.0529604 20.7905 0.245781 21.1388 0.636201 21.1388H5.21296L6.36209 13.8706L7.59815 6.06588Z" fill="#253B80"/>
</svg>
