<svg width="40" height="40" viewBox="0 0 40 40" fill="none" xmlns="http://www.w3.org/2000/svg">
<mask id="mask0_213_2165" style="mask-type:luminance" maskUnits="userSpaceOnUse" x="5" y="15" width="30" height="10">
<path d="M20.5039 18.2961C20.4879 19.6081 21.6719 20.3441 22.5679 20.7761C23.4879 21.2241 23.7919 21.5121 23.7919 21.9121C23.7839 22.5281 23.0559 22.7921 22.3759 22.8081C21.1919 22.8241 20.5039 22.4881 19.9519 22.2321L19.5279 24.2321C20.0799 24.4881 21.0959 24.7041 22.1519 24.7201C24.6319 24.7201 26.2479 23.4961 26.2559 21.6001C26.2639 19.1921 22.9279 19.0561 22.9519 17.9841C22.9599 17.6561 23.2719 17.3121 23.9519 17.2241C24.2879 17.1761 25.2239 17.1441 26.2799 17.6321L26.6959 15.6961C26.1279 15.4881 25.3999 15.2881 24.4879 15.2881C22.1519 15.2881 20.5119 16.5281 20.5039 18.2961ZM30.6799 15.4481C30.2239 15.4481 29.8479 15.7121 29.6799 16.1201L26.1439 24.5681H28.6239L29.1199 23.2081H32.1439L32.4319 24.5681H34.6159L32.7119 15.4481H30.6799M31.0239 17.9121L31.7359 21.3361H29.7759L31.0239 17.9121ZM17.4959 15.4481L15.5439 24.5681H17.9039L19.8559 15.4481H17.4959M14.0079 15.4481L11.5519 21.6561L10.5599 16.3761C10.4399 15.7841 9.9839 15.4481 9.4719 15.4481H5.4559L5.3999 15.7121C6.2239 15.8881 7.1599 16.1761 7.7279 16.4881C8.0719 16.6801 8.1759 16.8401 8.2879 17.2881L10.1679 24.5681H12.6639L16.4879 15.4481H14.0079" fill="white"/>
</mask>
<g mask="url(#mask0_213_2165)">
<path d="M2.34375 16.4079L31.1117 5.81592L37.6558 23.5919L8.88775 34.1839" fill="url(#paint0_linear_213_2165)"/>
</g>
<defs>
<linearGradient id="paint0_linear_213_2165" x1="8.03832" y1="24.4053" x2="32.6466" y2="15.3426" gradientUnits="userSpaceOnUse">
<stop stop-color="#222357"/>
<stop offset="1" stop-color="#254AA5"/>
</linearGradient>
</defs>
</svg>
